<?xml version="1.0" standalone="no"?>
<!DOCTYPE svg PUBLIC "-//W3C//DTD SVG 20010904//EN"
 "http://www.w3.org/TR/2001/REC-SVG-20010904/DTD/svg10.dtd">
<svg version="1.0" xmlns="http://www.w3.org/2000/svg"
 width="1280.000000pt" height="1280.000000pt" viewBox="0 0 1280.000000 1280.000000"
 preserveAspectRatio="xMidYMid meet">
<g transform="translate(0.000000,1280.000000) scale(0.100000,-0.100000)"
fill="#000000" stroke="none">
<path d="M6250 12224 c-449 -32 -817 -92 -1186 -193 -826 -227 -1559 -614
-2186 -1153 -272 -235 -785 -753 -999 -1010 -578 -694 -972 -1507 -1193 -2458
-189 -819 -206 -1815 -45 -2650 373 -1929 1668 -3243 3706 -3760 442 -112 895
-182 1448 -222 226 -16 971 -16 1195 0 739 54 1335 182 1920 413 l135 53 163
160 c136 134 168 171 193 225 l30 64 -116 286 c-230 562 -247 601 -262 601 -8
0 -76 -24 -151 -54 -606 -239 -1259 -358 -2047 -373 -1095 -21 -2037 162
-2805 546 -322 161 -555 315 -805 530 -645 556 -1071 1332 -1220 2223 -78 471
-92 990 -40 1458 130 1152 651 2237 1384 2883 613 541 1430 902 2286 1011 235
30 424 39 725 33 538 -10 965 -85 1405 -247 895 -329 1581 -918 1978 -1697
281 -553 392 -1096 358 -1767 -25 -505 -101 -904 -246 -1296 -97 -262 -311
-654 -418 -769 -78 -83 -360 -239 -532 -295 -253 -82 -540 -108 -676 -61 -160
55 -215 221 -175 526 26 194 103 544 526 2409 250 1102 424 1889 429 1940 5
52 4 90 -2 98 -7 9 -132 12 -565 12 l-556 0 -161 -160 c-88 -88 -166 -160
-173 -160 -7 0 -51 30 -99 66 -369 278 -716 395 -1213 411 -461 14 -839 -71
-1246 -281 -341 -176 -587 -374 -1033 -832 -369 -378 -548 -624 -752 -1029
-263 -524 -414 -1083 -460 -1713 -17 -238 -7 -677 20 -857 121 -801 516 -1387
1130 -1678 213 -100 479 -172 735 -198 169 -17 479 -7 621 20 467 88 882 309
1312 698 45 41 87 72 92 69 5 -4 19 -32 31 -64 117 -311 367 -542 713 -657
188 -62 244 -70 522 -70 318 0 492 21 785 95 455 115 904 354 1283 682 189
164 455 441 598 623 464 590 765 1354 873 2215 77 611 70 1188 -20 1690 -162
899 -587 1706 -1222 2322 -320 309 -661 551 -1077 764 -609 312 -1221 486
-1965 560 -157 15 -811 28 -950 18z m-184 -3825 c276 -27 476 -93 720 -240
156 -94 354 -261 354 -299 0 -25 -410 -1823 -450 -1976 -82 -310 -218 -613
-382 -850 -55 -80 -122 -131 -274 -207 -118 -59 -213 -92 -334 -117 -269 -55
-552 -28 -760 71 -323 154 -500 467 -551 974 -15 151 -6 565 16 725 57 421
176 805 355 1147 181 346 387 564 644 683 192 90 388 116 662 89z"/>
</g>
</svg>
